<svg xmlns="http://www.w3.org/2000/svg" width="24" height="24" viewBox="0 0 24 24">
    <path fill="#715A52" fill-rule="nonzero" d="M23.928 7.053a8.808 8.808 0 0 0-.557-2.913 5.883 5.883 0 0 0-1.386-2.125A5.883 5.883 0 0 0 19.86.629a8.808 8.808 0 0 0-2.912-.557C15.667.013 15.258 0 12 0 8.741 0 8.333.013 7.053.072c-.995.02-1.98.208-2.913.557a5.883 5.883 0 0 0-2.127 1.386A5.883 5.883 0 0 0 .628 4.14a8.808 8.808 0 0 0-.557 2.912C.013 8.333 0 8.742 0 12c0 3.259.013 3.667.072 4.947.02.995.208 1.98.557 2.913.302.8.775 1.526 1.386 2.125.599.611 1.324 1.084 2.125 1.386a8.808 8.808 0 0 0 2.912.557C8.333 23.987 8.742 24 12 24c3.259 0 3.667-.013 4.947-.072a8.808 8.808 0 0 0 2.913-.557 6.136 6.136 0 0 0 3.51-3.511 8.808 8.808 0 0 0 .558-2.912c.059-1.281.072-1.69.072-4.948 0-3.259-.013-3.667-.072-4.947zm-2.16 9.796a6.637 6.637 0 0 1-.413 2.227 3.973 3.973 0 0 1-2.278 2.279 6.639 6.639 0 0 1-2.228.413c-1.266.057-1.645.07-4.849.07s-3.584-.013-4.85-.07a6.639 6.639 0 0 1-2.226-.413 3.717 3.717 0 0 1-1.381-.898 3.717 3.717 0 0 1-.898-1.38 6.637 6.637 0 0 1-.413-2.228c-.057-1.266-.07-1.645-.07-4.849s.013-3.584.07-4.85c.01-.76.149-1.513.413-2.226.192-.522.499-.994.898-1.381a3.717 3.717 0 0 1 1.38-.898 6.639 6.639 0 0 1 2.228-.413c1.266-.057 1.645-.07 4.849-.07s3.584.013 4.85.07c.76.01 1.513.149 2.226.413.522.192.994.499 1.381.898.399.387.705.858.898 1.38.264.713.404 1.467.413 2.228.057 1.266.07 1.645.07 4.849s-.013 3.584-.07 4.85zM12 5.837a6.163 6.163 0 1 0 0 12.326 6.163 6.163 0 0 0 0-12.326zM12 16a4 4 0 1 1 0-8 4 4 0 0 1 0 8zm7.845-10.405a1.44 1.44 0 1 1-2.88 0 1.44 1.44 0 0 1 2.88 0z"/>
</svg>
