<svg xmlns="http://www.w3.org/2000/svg" xmlns:xlink="http://www.w3.org/1999/xlink" width="180" height="151" viewBox="0 0 180 151">
    <defs>
        <path id="a" d="M0 .676h179.194v61.323H0z"/>
    </defs>
    <g fill="none" fill-rule="evenodd">
        <text fill="#715A52" font-family="LuloCleanOne-Bold, Lulo Clean" font-size="16" font-weight="bold" letter-spacing="-.42" transform="translate(-42)">
            <tspan x="80.206" y="124">COOKIES</tspan>
        </text>
        <g transform="translate(0 25)">
            <mask id="b" fill="#fff">
                <use xlink:href="#a"/>
            </mask>
            <path fill="#62BAA2" d="M134.547 3.26c-31.642-2.853-63.35 1.328-94.912-.173-.542-.432-1.235-.764-2.131-.907C25.692.302 5.314-2.44.651 12.408c-3.625 11.555 8.714 23.895 16.818 30.1C29.613 51.808 45.023 55.21 59.834 57.87c19.4 3.482 39.38 4.867 59.067 3.753 15.645-.887 30.162-3.83 42.744-13.378 7.63-5.791 16.279-13.053 17.452-23.1C181.293 6.33 146.081 4.3 134.547 3.258" mask="url(#b)"/>
        </g>
        <path fill="#FBB763" d="M139.215 19.91c1.386-1.346 1.785-4.062-.26-5.585C118.405-.936 83.28-.495 60.214 7.367 49.354 11.07 39.473 18.221 36.065 29.77c-3.497 11.845 2.072 25.998 10.148 34.536 30.258 31.982 115.687-1.532 93.002-44.395"/>
        <path fill="#422D24" d="M109.5 7c4.667 0 4.667-7 0-7s-4.667 7 0 7M121.5 32c4.667 0 4.667-7 0-7s-4.667 7 0 7M99.5 33c4.667 0 4.667-7 0-7s-4.667 7 0 7M104.5 54c4.667 0 4.667-7 0-7s-4.667 7 0 7M75.5 45c4.667 0 4.667-7 0-7s-4.667 7 0 7M55.5 37c4.667 0 4.667-7 0-7s-4.667 7 0 7M76.5 21c4.667 0 4.667-7 0-7s-4.667 7 0 7M73.5 62c4.667 0 4.667-7 0-7s-4.667 7 0 7"/>
    </g>
</svg>
