<svg xmlns="http://www.w3.org/2000/svg" xmlns:xlink="http://www.w3.org/1999/xlink" width="122" height="164" viewBox="0 0 122 164">
    <defs>
        <path id="a" d="M0 .258h119.741v64.44H.001z"/>
        <path id="c" d="M.456.243h14.368v14.138H.456z"/>
    </defs>
    <g fill="none" fill-rule="evenodd">
        <text fill="#715A52" font-family="LuloCleanOne-Bold, Lulo Clean" font-size="16" font-weight="bold" letter-spacing="-.42" transform="translate(-70)">
            <tspan x="89.896" y="137">CUPCAKES</tspan>
        </text>
        <path fill="#422D24" d="M106.997 52.655a3.42 3.42 0 0 0-.986-2.462C83.96 27.946 36.1 24.872 13.473 47.841a3.06 3.06 0 0 0-.93 1.044c-.73 1.123-.668 2.362-.145 3.383.29.702.786 1.31 1.498 1.682.033.475.168.972.424 1.476L33.053 92.23c.372.805.904 1.31 1.5 1.584.14 1.3.92 2.502 2.472 2.872 15.709 3.757 31.558 4.615 47.368 1.028a3.25 3.25 0 0 0 1.127-.33c.086-.041.155-.095.235-.138.063-.04.132-.071.188-.115.378-.247.67-.552.886-.9.372-.282.71-.666.998-1.17 7.564-13.25 15.715-26.343 19.087-41.427.077-.344.094-.667.083-.98"/>
        <g transform="translate(2 5)">
            <mask id="b" fill="#fff">
                <use xlink:href="#a"/>
            </mask>
            <path fill="#FBDFDB" d="M119.452 38.17c-2.776-17.838-18.465-27.354-34.142-32.886-14.839-5.236-35.138-8.138-49.386.28-.6.353-1.037.789-1.349 1.265C15.866 11.472-2.806 20.547.351 43.147c1.347 9.644 8.185 15.678 17.667 16.565 7.803.73 15.001-3.357 20.183-9.082 2.956 6.898 8.49 11.92 17.09 12.418 7.803.455 13.968-4.333 17.697-10.664 5.394 8.368 14.8 13.272 25.555 12.157 13.33-1.38 23.02-12.796 20.909-26.37" mask="url(#b)"/>
        </g>
        <g transform="translate(57)">
            <mask id="d" fill="#fff">
                <use xlink:href="#c"/>
            </mask>
            <path fill="#6FBDA0" d="M8.044.242c-9.563 0-10.37 14.14-.807 14.14 9.562 0 10.368-14.14.807-14.14" mask="url(#d)"/>
        </g>
    </g>
</svg>
