<svg xmlns="http://www.w3.org/2000/svg" xmlns:xlink="http://www.w3.org/1999/xlink" width="132" height="154" viewBox="0 0 132 154">
    <defs>
        <path id="a" d="M0 .318h131.237v93.566H0z"/>
    </defs>
    <g fill="none" fill-rule="evenodd">
        <text fill="#715A52" font-family="LuloCleanOne-Bold, Lulo Clean" font-size="16" font-weight="bold" letter-spacing="-.42" transform="translate(-66)">
            <tspan x="98.18" y="137">TARTAS</tspan>
        </text>
        <path fill="#FFF" d="M63.229 113c51.08 0 51.08-57.426 0-57.426-51.074 0-51.074 57.426 0 57.426"/>
        <g>
            <mask id="b" fill="#fff">
                <use xlink:href="#a"/>
            </mask>
            <path fill="#6CBFA7" d="M37.456 78.261c-7.388-15.959-15.23-31.692-23.87-47.003l12.282.262c2.723 8.297 6.105 16.347 9.533 24.378 2.46 5.756 10.818.791 8.384-4.914-2.718-6.357-5.38-12.725-7.653-19.245 4.758.1 9.512.202 14.268.305.012.207.006.41.04.625 1.352 8.212 2.534 16.45 3.883 24.662 1.02 6.182 10.37 3.55 9.363-2.589-1.233-7.488-2.336-14.998-3.541-22.491l14.533.311c-1.215 8.656-2.317 17.313-2.409 26.07-.068 6.281 9.638 6.275 9.706 0 .09-8.693 1.18-17.268 2.4-25.864 4.14.088 8.279.178 12.415.265-1.174 8.199-2.428 16.388-4.936 24.304-1.902 6 7.47 8.55 9.358 2.59 2.68-8.448 3.927-17.21 5.18-25.96.034-.25.027-.488.03-.73l12.506.27c-7.34 15.828-14.682 31.657-22.02 47.486l-58.964-1.205a5.179 5.179 0 0 0-.488-1.527m93.777-49.529c.005-1.205-.414-2.42-1.361-3.376C99.56-5.258 33.11-9.498 2.012 22.128A4.242 4.242 0 0 0 .733 23.57c-.914 1.414-.906 2.957-.347 4.285.015.049.039.096.056.144.027.06.05.123.082.181.4.98 1.089 1.827 2.084 2.345a5.18 5.18 0 0 0 .587 2.028c8.624 16.875 17.253 33.747 25.88 50.622.512 1.111 1.248 1.806 2.074 2.18.195 1.79 1.274 3.44 3.415 3.953 21.673 5.184 43.653 6.386 65.468 1.407a4.424 4.424 0 0 0 1.528-.453c.11-.051.2-.117.303-.174.097-.06.2-.109.289-.177a3.956 3.956 0 0 0 1.21-1.228c.516-.388.987-.917 1.387-1.614 10.434-18.205 21.77-36.232 26.373-56.975.107-.479.126-.926.11-1.36" mask="url(#b)"/>
        </g>
    </g>
</svg>
