<svg xmlns="http://www.w3.org/2000/svg" xmlns:xlink="http://www.w3.org/1999/xlink" width="118" height="171" viewBox="0 0 118 171">
    <defs>
        <path id="a" d="M0 .289h117.475v113.71H0z"/>
    </defs>
    <g fill="none" fill-rule="evenodd">
        <text fill="#715A52" font-family="LuloCleanOne-Bold, Lulo Clean" font-size="16" font-weight="bold" letter-spacing="-.42" transform="translate(-69)">
            <tspan x="86.988" y="144">TORTAS</tspan>
        </text>
        <path fill="#FBB763" d="M110.783 72.522l-.042-.532L6 58v32.6l.311.193C6.687 91.025 34.724 108 71.957 108c12.699 0 26.473-1.975 40.578-7.266l.465-.175-2.217-28.037z"/>
        <path fill="#422D24" d="M100.108 77.38c-30.993 12.34-57.699 3.193-86.597-9.89-5.718-2.588-10.714 5.799-4.96 8.405 31.167 14.108 60.733 24.182 94.167 10.873 5.802-2.31 3.271-11.727-2.61-9.387"/>
        <g>
            <mask id="b" fill="#fff">
                <use xlink:href="#a"/>
            </mask>
            <path fill="#6FBDA0" d="M11.37 87.391c-.068-.043-.135-.064-.204-.105-.027-8.001-.232-15.975-1.007-23.939 30.678 5.83 65.107 16.656 95.614 7.279-.618 8.647-.205 17.19 1.587 25.736-30.725 13.438-68.151 9.277-95.99-8.97M32.879 10.33a5.01 5.01 0 0 0 1.064.662c26.464 12.222 49.985 29.164 70.084 50.07-28.615 9.765-62.817-1.663-91.735-7.24 3.82-15.833 7.247-33.002 20.587-43.492m84.237 87.84c.247-.777.32-1.653.092-2.632-2.246-9.675-2.295-19.293-1.23-29.106 1.934-1.768 1.66-5.124-.033-6.994-21.656-23.913-47.681-43.341-77.04-56.898-1.469-.677-2.887-.616-4.09-.117-1.277-1.972-3.668-3.012-6.117-1.19C10.555 14.73 6.912 35.763 1.527 56.375c-.013.047-.011.098-.023.145C.476 57.285-.168 58.527.04 60.29c1.178 9.986 1.31 19.98 1.312 30.024 0 2.784 1.913 4.337 4.051 4.666.285.312.606.607 1.007.868 31.703 20.78 74.236 24.17 108.54 7.832 2.53-1.204 2.958-3.524 2.166-5.508" mask="url(#b)"/>
        </g>
    </g>
</svg>
