<svg xmlns="http://www.w3.org/2000/svg" xmlns:xlink="http://www.w3.org/1999/xlink" width="95" height="49" viewBox="0 0 95 49">
    <defs>
        <path id="a" d="M0 .38h94.43v34.54H0z"/>
    </defs>
    <g fill="none" fill-rule="evenodd" opacity=".314">
        <g transform="translate(.513 33.08)">
            <mask id="b" fill="#fff">
                <use xlink:href="#a"/>
            </mask>
            <path fill="#62BAA2" d="M70.902 1.836C54.228.229 37.52 2.584 20.886 1.738a2.285 2.285 0 0 0-1.123-.51C13.54.17 2.8-1.374.343 6.988c-1.91 6.509 4.592 13.459 8.863 16.954 6.4 5.237 14.52 7.153 22.325 8.651 10.223 1.961 20.752 2.741 31.126 2.114 8.244-.5 15.895-2.158 22.525-7.535 4.021-3.262 8.578-7.352 9.197-13.01C95.536 3.564 76.98 2.421 70.902 1.835" mask="url(#b)"/>
        </g>
        <path fill="#FBB763" d="M73.875 11.214c.73-.759.94-2.288-.137-3.146C62.909-.527 44.398-.278 32.244 4.15c-5.723 2.086-10.93 6.114-12.727 12.618-1.842 6.671 1.093 14.643 5.349 19.451 15.944 18.013 60.963-.862 49.009-25.004"/>
        <path fill="#422D24" d="M58.216 3.943c2.46 0 2.46-3.943 0-3.943s-2.46 3.943 0 3.943M64.54 18.023c2.459 0 2.459-3.943 0-3.943-2.46 0-2.46 3.943 0 3.943M52.946 18.586c2.46 0 2.46-3.942 0-3.942-2.459 0-2.459 3.942 0 3.942M55.581 30.414c2.46 0 2.46-3.943 0-3.943s-2.46 3.943 0 3.943M40.299 25.345c2.46 0 2.46-3.943 0-3.943s-2.46 3.943 0 3.943M29.76 20.84c2.459 0 2.459-3.943 0-3.943-2.46 0-2.46 3.942 0 3.942M40.826 11.828c2.46 0 2.46-3.943 0-3.943s-2.46 3.943 0 3.943M39.245 34.92c2.46 0 2.46-3.943 0-3.943s-2.46 3.943 0 3.943"/>
    </g>
</svg>
