<svg xmlns="http://www.w3.org/2000/svg" xmlns:xlink="http://www.w3.org/1999/xlink" width="64" height="64" viewBox="0 0 64 64">
    <defs>
        <path id="a" d="M0 .136h63.3v34.055H0z"/>
        <path id="c" d="M.24.128h7.597V7.6H.24z"/>
    </defs>
    <g fill="none" fill-rule="evenodd" opacity=".314">
        <path fill="#422D24" d="M55.849 27.827a1.807 1.807 0 0 0-.521-1.302C43.67 14.768 18.369 13.144 6.408 25.282a1.617 1.617 0 0 0-.491.552c-.387.593-.354 1.249-.078 1.788.154.371.416.692.793.889.017.25.088.513.224.78l9.903 19.45c.196.426.477.693.793.837.073.688.486 1.322 1.307 1.518 8.304 1.985 16.683 2.44 25.04.543.223-.025.422-.085.596-.175.046-.02.082-.05.124-.072.033-.021.07-.038.1-.06.2-.131.354-.293.468-.477.196-.148.375-.351.528-.618 3.998-7.002 8.307-13.921 10.09-21.893.04-.181.05-.352.044-.517"/>
        <g transform="translate(.343 2.642)">
            <mask id="b" fill="#fff">
                <use xlink:href="#a"/>
            </mask>
            <path fill="#FBDFDB" d="M63.147 20.172c-1.467-9.427-9.76-14.456-18.049-17.38-7.844-2.767-18.575-4.3-26.107.148a2.123 2.123 0 0 0-.713.669C8.388 6.062-1.483 10.859.186 22.802c.712 5.096 4.326 8.285 9.339 8.754 4.125.386 7.93-1.774 10.67-4.8 1.562 3.646 4.488 6.3 9.034 6.563 4.125.24 7.384-2.29 9.355-5.636 2.852 4.422 7.825 7.014 13.51 6.425 7.047-.729 12.17-6.763 11.053-13.936" mask="url(#b)"/>
        </g>
        <g transform="translate(29.418)">
            <mask id="d" fill="#fff">
                <use xlink:href="#c"/>
            </mask>
            <path fill="#6FBDA0" d="M4.252.128C-.803.128-1.23 7.6 3.826 7.6c5.054 0 5.48-7.472.426-7.472" mask="url(#d)"/>
        </g>
    </g>
</svg>
