<svg xmlns="http://www.w3.org/2000/svg" xmlns:xlink="http://www.w3.org/1999/xlink" width="70" height="64" viewBox="0 0 70 64">
    <defs>
        <path id="a" d="M0 .178h69.165v52.333H0z"/>
    </defs>
    <g fill="none" fill-rule="evenodd" opacity=".314">
        <path fill="#FFF" d="M33.323 63.203c26.92 0 26.92-32.12 0-32.12-26.917 0-26.917 32.12 0 32.12"/>
        <g>
            <mask id="b" fill="#fff">
                <use xlink:href="#a"/>
            </mask>
            <path fill="#6CBFA7" d="M19.74 43.773c-3.893-8.926-8.026-17.726-12.58-26.29l6.473.147c1.435 4.64 3.217 9.143 5.024 13.635 1.296 3.22 5.701.442 4.418-2.748-1.432-3.556-2.834-7.118-4.032-10.765l7.519.171c.006.115.003.229.021.35.712 4.593 1.335 9.2 2.047 13.794.537 3.457 5.465 1.985 4.934-1.449-.65-4.188-1.231-8.388-1.866-12.58l7.66.175c-.641 4.841-1.222 9.683-1.27 14.581-.036 3.513 5.079 3.51 5.115 0 .047-4.862.622-9.658 1.264-14.466 2.182.05 4.363.1 6.544.148-.62 4.586-1.28 9.166-2.602 13.594-1.003 3.356 3.937 4.782 4.932 1.448 1.412-4.725 2.07-9.625 2.73-14.52.018-.14.014-.272.016-.407l6.59.15L51.073 45.3l-31.076-.674a3.025 3.025 0 0 0-.257-.854m49.422-27.702c.003-.674-.217-1.354-.717-1.889C52.47-2.94 17.45-5.313 1.061 12.377c-.286.213-.51.489-.675.806-.481.79-.477 1.654-.183 2.397.008.027.02.053.03.08.014.034.027.069.043.101.21.548.574 1.022 1.099 1.312.023.365.12.747.309 1.134 4.545 9.438 9.092 18.876 13.639 28.314.27.622.658 1.01 1.093 1.22.103 1 .672 1.924 1.8 2.21 11.422 2.9 23.006 3.572 34.503.787.302-.038.57-.124.805-.253.059-.029.106-.066.16-.097.05-.034.105-.061.152-.1.271-.188.482-.42.638-.686a2.89 2.89 0 0 0 .731-.903c5.499-10.182 11.473-20.265 13.9-31.867.055-.268.066-.518.057-.761" mask="url(#b)"/>
        </g>
    </g>
</svg>
