<svg xmlns="http://www.w3.org/2000/svg" xmlns:xlink="http://www.w3.org/1999/xlink" width="62" height="61" viewBox="0 0 62 61">
    <defs>
        <path id="a" d="M0 .153h61.86v60.082H0z"/>
    </defs>
    <g fill="none" fill-rule="evenodd">
        <path fill="#FBB763" d="M58.336 38.319l-.022-.28L3.16 30.645v17.225l.164.102c.198.123 14.962 9.092 34.568 9.092 6.687 0 13.94-1.044 21.368-3.839l.245-.093-1.168-14.814z"/>
        <path fill="#422D24" d="M52.715 40.886c-16.32 6.52-30.383 1.687-45.6-5.226-3.011-1.367-5.642 3.064-2.612 4.442 16.412 7.454 31.98 12.777 49.586 5.744 3.056-1.22 1.723-6.196-1.374-4.96"/>
        <g>
            <mask id="b" fill="#fff">
                <use xlink:href="#a"/>
            </mask>
            <path fill="#6FBDA0" d="M5.988 46.176c-.037-.023-.072-.034-.108-.056-.015-4.228-.122-8.44-.53-12.648 16.154 3.08 34.284 8.8 50.348 3.845-.325 4.57-.108 9.083.836 13.599-16.18 7.1-35.887 4.902-50.546-4.74M17.313 5.459c.16.129.342.249.56.35 13.936 6.458 26.321 15.41 36.905 26.455-15.068 5.16-33.078-.878-48.306-3.825 2.012-8.366 3.817-17.438 10.841-22.98M61.67 51.872c.13-.411.17-.874.049-1.391-1.183-5.112-1.209-10.194-.647-15.379 1.018-.934.874-2.708-.018-3.696C49.65 18.771 35.946 8.506 20.486 1.343c-.773-.358-1.52-.326-2.154-.062-.672-1.042-1.931-1.592-3.22-.63C5.557 7.784 3.64 18.898.803 29.789c-.007.025-.006.052-.012.077-.542.403-.88 1.06-.771 1.99.62 5.277.69 10.558.69 15.865 0 1.47 1.008 2.291 2.134 2.465.15.165.319.32.53.458 16.694 10.98 39.091 12.772 57.155 4.139 1.332-.636 1.558-1.862 1.14-2.91" mask="url(#b)"/>
        </g>
    </g>
</svg>
