<svg xmlns="http://www.w3.org/2000/svg" width="109" height="127" viewBox="0 0 109 127">
    <g fill="none" fill-rule="evenodd">
        <g fill="#422D24">
            <path d="M38.806 123.719H35.7v-2.326h3.013c1.126 0 2.316.37 2.316 1.243 0 .859-1.136 1.083-2.224 1.083m2.509 1.704c0 .951-1.463 1.132-2.6 1.132H35.7v-2.4h3.105c1.216 0 2.497.335 2.509 1.268m.374-2.787c0-1.14-1.447-1.636-2.975-1.636H35v6h3.714c1.555 0 3.286-.334 3.286-1.57 0-.692-.648-1.303-1.783-1.508.904-.188 1.472-.668 1.472-1.286M48.56 126.59c-1.065 0-2.434-.347-2.968-1.055l-.592.2c.668.89 2.206 1.265 3.56 1.265 1.454 0 3.429-.317 3.44-1.631 0-1.257-1.739-1.456-3.414-1.673-1.466-.184-2.655-.359-2.655-1.097 0-.934 1.61-1.182 2.629-1.182.98.006 1.999.106 2.632.788l.545-.217c-.854-.854-1.934-.988-3.177-.988-1.426 0-3.338.382-3.301 1.612 0 1.076 1.629 1.293 3.217 1.5 1.426.183 2.865.375 2.854 1.248 0 1.031-1.702 1.23-2.77 1.23M57.495 121.447l1.917 3.65h-3.833l1.916-3.65zm2.13 4.08l.784 1.473H61l-3.2-6h-.6l-3.2 6h.591l.772-1.473h4.261zM70 125.37c0-1.258-1.739-1.458-3.414-1.675-1.466-.182-2.655-.358-2.655-1.097 0-.933 1.61-1.181 2.629-1.181.983.007 2 .107 2.632.79l.545-.218c-.854-.856-1.934-.989-3.177-.989-1.425 0-3.338.383-3.301 1.613 0 1.074 1.629 1.292 3.217 1.499 1.426.183 2.865.375 2.856 1.247 0 1.03-1.702 1.232-2.772 1.232-1.065 0-2.432-.35-2.966-1.056l-.594.2c.67.89 2.208 1.265 3.56 1.265 1.455 0 3.429-.317 3.44-1.63"/>
        </g>
        <path fill="#FFF" d="M60.42 34.691c.255-2.118.77-4.148 1.556-6.126.607-1.527-.721-3.299-2.133-3.669-1.722-.45-3.01.643-3.615 2.166a24.315 24.315 0 0 0-1.556 6.124c-.195 1.63.412 3.219 2.133 3.67 1.412.368 3.42-.532 3.616-2.165z"/>
        <path fill="#715A52" stroke="#FFF" d="M52.24 84.276c-3.534-.377.16-24.766 3.984-24.64 1.533.382.407 9.554.305 10.615-.251 2.637-.61 5.314-1.34 7.873-.301 1.022-1.627 6.293-2.949 6.152m50.953-4.55c-2.857 0-4.445 2.166-4.78 4.713-.679 5.183-2.419 11.95-7.32 14.837-1.285.756-2.634.72-3.512.328-2.208-.985-3.491-3.034-4.584-5.084-1.618-3.031-2.328-6.713-2.738-10.08.048.39-.077-.614-.151-1.195a49.707 49.707 0 0 1-.074-.835 53.732 53.732 0 0 1-.12-2.765c-.133-5.402.214-10.824.692-16.203.92-10.35 4.276-30.446 7.989-32.095 4.924-2.184 5.552 17.92 5.884 19.922.752 4.516 8.476 4.525 9.217 0 1-6.106.299-12.616-1.381-18.548-1.568-5.538-5.902-12.988-12.845-12.18-7.313.856-10.664 6.04-13.034 12.401-3.504 9.402-5.177 19.57-6.857 29.41a487.179 487.179 0 0 0-1.727 10.975 103.38 103.38 0 0 1-1.553-10.64c-.02-4.416-.254-8.735-.411-12.67-.203-5.07-6.601-5.912-8.815-2.506-1.278-.928-3.017-1.153-4.879-.046-8.407 5.003-11.945 14.754-14.484 23.608-.262.913-.494 1.841-.73 2.77-.014.123-.034.246-.05.37-.513 1.97-.948 3.882-1.316 5.562l-.087.659v-5.587c-.518-24.004 4.23-43.275 9.837-66.573l.524-2.177c.337-1.403.12-2.638-.627-3.57-1.654-2.064-4.63-1.965-6.28-.13-3.358 3.736-5.288 8.919-7.131 13.48-2.666 6.6-4.869 13.4-6.723 20.263-.72 2.667-1.175 5.396-1.889 8.064-1.427 5.338-1.025 5.384-1.427 5.338-1.51-.017-1.164-19.879-1.572-29.74-.053-1.282-.189-2.562-1.127-3.65-1.615-1.875-4.447-2.555-6.134-.362C-3.978 37.834.41 81.914 5.962 110.144 6.469 112.722 8.869 113 9.878 113c1.9 0 3.84-.853 4.943-2.173.79-.944 1.85-2.064 1.62-3.238l-.379-1.924c-3.804-19.343-6.658-48.639-2.355-59.692l.05 4.993c.069 6.994 2.014 13.999 3.855 16.73.835 1.238 1.929 1.92 3.081 1.92 2.126 0 4.166-2.192 5.599-6.015l1.304-3.482-.193 3.71c-.51 9.784-.958 19.797-.01 29.57 1.09 11.242 1.09 14.636 5.684 14.822 6.537.264 7.138-9.12 10.513-20.948-1.015 3.327 3.97 9.074 6.754 9.652 4.916 1.017 9.338-5.516 11.447-9.567a100.64 100.64 0 0 0 3.916 10.091c1.777 3.917 6.32 2.553 8.15-.312 3.16 7.33 8.738 13.08 17.804 11.862 11.077-1.49 15.137-15.601 16.311-24.56.336-2.554-2.426-4.714-4.78-4.714"/>
    </g>
</svg>
